<?xml version="1.0" encoding="utf-8"?>
<!-- Generator: Adobe Illustrator 21.1.0, SVG Export Plug-In . SVG Version: 6.00 Build 0)  -->
<svg version="1.1" id="Layer_1" xmlns="http://www.w3.org/2000/svg" xmlns:xlink="http://www.w3.org/1999/xlink" x="0px" y="0px"
	 viewBox="0 0 300 300" style="enable-background:new 0 0 300 300;" xml:space="preserve">
<style type="text/css">
	.st0{fill:#FFFFFF;}
</style>
<g>
	<path class="st0" d="M49.5,75.4l8,4.9c6.4,4,9.7,8.2,9.7,12.7c0,2.8-1.1,5.1-3.3,6.9c-2.2,1.8-4.9,2.7-8.2,2.7
		c-7.5,0-14-3.6-19.7-10.8v13.3c6,4.5,12.6,6.7,19.8,6.7c6.3,0,11.4-1.8,15.4-5.5C75,102.6,77,97.9,77,92c0-8.3-4.5-15.1-13.4-20.4
		l-8-4.7c-3.6-2.1-6.2-4.1-7.8-6c-1.6-1.9-2.4-4-2.4-6.2c0-2.5,1.1-4.5,3.3-6.1c2.2-1.6,5-2.4,8.5-2.4c6.1,0,11.8,2.5,17.1,7.6V41.8
		c-5.1-3.4-10.7-5.2-16.9-5.2c-6.4,0-11.6,1.8-15.6,5.4c-4,3.6-6,8.3-6,14.1c0,3.9,1.1,7.3,3.2,10.2C40.9,69.3,44.4,72.3,49.5,75.4z
		"/>
	<path class="st0" d="M100.4,89.2h31.3l9.8,21.7h10.8l-32.9-73.8H112L80.4,111h10.8L100.4,89.2z M115.6,53.3l11.8,26.6h-22.8
		L115.6,53.3z"/>
	<polygon class="st0" points="203.8,101.4 170.8,101.4 170.8,37.6 160.3,37.6 160.3,111 203.8,111 	"/>
	<polygon class="st0" points="231.9,111 242.5,111 242.5,46.8 268.1,46.8 268.1,37.5 206.8,37.5 206.8,46.8 231.9,46.8 	"/>
	<path class="st0" d="M77.3,137.3c8.4,0,17.1,2.5,25.9,7.6v-11.6c-9.7-4.1-18.5-6.2-26.5-6.2c-11.5,0-21.2,3.8-29,11.3
		c-7.8,7.5-11.8,16.8-11.8,27.8c0,6.9,1.7,13.4,5.1,19.3c3.4,6,8.1,10.6,14,14c5.9,3.4,13,5.1,21.5,5.1c10.4,0,19.6-2.2,27.5-6.5
		V186c-8.7,5.6-17.7,8.4-26.8,8.4c-8.8,0-16-2.7-21.6-8c-5.6-5.3-8.4-12.2-8.4-20.5c0-8.2,2.9-15.1,8.6-20.5
		C61.4,140,68.6,137.3,77.3,137.3z"/>
	<rect x="117.4" y="128" class="st0" width="10.8" height="75.6"/>
	<polygon class="st0" points="175.4,203.6 175.4,137.5 201.7,137.5 201.7,127.9 138.6,127.9 138.6,137.5 164.5,137.5 164.5,203.6 	
		"/>
	<polygon class="st0" points="236.9,154 216.7,128 203.6,128 231.5,163.6 231.5,203.6 242.6,203.6 242.6,163.6 270.6,128 257.4,128 
			"/>
	<path class="st0" d="M78.9,224.7c-5-4.8-11.3-7.2-18.8-7.2c-7.5,0-13.8,2.4-18.7,7.2c-4.9,4.8-7.4,10.8-7.4,18.1
		c0,7.1,2.4,13,7.3,17.7c4.9,4.7,11,7.1,18.4,7.1c7.7,0,14.1-2.4,19.1-7.1c5.1-4.7,7.6-10.7,7.6-17.8
		C86.4,235.5,83.9,229.5,78.9,224.7z M73.8,255.8c-3.6,3.6-8.2,5.3-13.6,5.3c-5.4,0-9.9-1.7-13.5-5.2c-3.6-3.5-5.4-7.9-5.4-13.1
		c0-5.4,1.8-9.9,5.4-13.4c3.6-3.5,8.2-5.2,13.7-5.2c5.3,0,9.8,1.8,13.4,5.3c3.6,3.5,5.5,7.9,5.5,13
		C79.2,247.8,77.4,252.3,73.8,255.8z"/>
	<path class="st0" d="M110,218.2H94.6V267h7v-21.1h5.2c4.6,0,8.1-0.5,10.6-1.5c2.5-1,4.4-2.6,5.8-4.8c1.4-2.2,2.1-4.7,2.1-7.5
		c0-4.2-1.4-7.6-4.2-10.1C118.4,219.5,114.7,218.2,110,218.2z M115.8,237.7c-1.5,1.3-3.7,2-6.6,2h-7.6v-15.2h7.2
		c6.2,0,9.3,2.5,9.3,7.5C118.1,234.4,117.3,236.3,115.8,237.7z"/>
	<polygon class="st0" points="127.2,224.4 143.9,224.4 143.9,267 150.9,267 150.9,224.4 167.9,224.4 167.9,218.2 127.2,218.2 	"/>
	<rect x="174.6" y="218.3" class="st0" width="7" height="48.7"/>
	<path class="st0" d="M203.2,256c-3.6-3.4-5.4-7.8-5.4-13.2c0-5.3,1.8-9.7,5.5-13.2c3.7-3.5,8.3-5.3,13.9-5.3c5.4,0,11,1.6,16.7,4.9
		v-7.5c-6.3-2.7-11.9-4-17.1-4c-7.4,0-13.7,2.4-18.7,7.3c-5.1,4.8-7.6,10.8-7.6,17.9c0,4.5,1.1,8.6,3.3,12.5c2.2,3.8,5.2,6.8,9,9
		c3.8,2.2,8.4,3.3,13.8,3.3c6.7,0,12.6-1.4,17.7-4.2v-7.7c-5.6,3.6-11.4,5.4-17.3,5.4C211.4,261.1,206.8,259.4,203.2,256z"/>
	<path class="st0" d="M259.1,240.8l-5.3-3.2c-2.4-1.4-4.1-2.7-5.2-4c-1.1-1.3-1.6-2.6-1.6-4.1c0-1.6,0.7-3,2.2-4
		c1.5-1.1,3.3-1.6,5.6-1.6c4,0,7.8,1.7,11.3,5.1v-7.9c-3.4-2.3-7.1-3.4-11.2-3.4c-4.3,0-7.7,1.2-10.4,3.6c-2.7,2.4-4,5.5-4,9.3
		c0,2.6,0.7,4.8,2.1,6.8c1.4,2,3.8,4,7.1,6l5.3,3.2c4.3,2.7,6.4,5.5,6.4,8.4c0,1.8-0.7,3.4-2.2,4.6c-1.5,1.2-3.3,1.8-5.5,1.8
		c-5,0-9.3-2.4-13.1-7.2v8.9c4,3,8.3,4.4,13.1,4.4c4.2,0,7.6-1.2,10.2-3.7c2.6-2.4,3.9-5.6,3.9-9.5C268,248.9,265,244.4,259.1,240.8
		z"/>
	<path class="st0" d="M14.5,287.9h272v-272h-272V287.9z M19.5,20.9h262v262h-262V20.9z"/>
</g>
</svg>
