<?xml version="1.0" encoding="utf-8"?>
<!-- Generator: Adobe Illustrator 21.1.0, SVG Export Plug-In . SVG Version: 6.00 Build 0)  -->
<svg version="1.1" id="Layer_1" xmlns="http://www.w3.org/2000/svg" xmlns:xlink="http://www.w3.org/1999/xlink" x="0px" y="0px"
	 viewBox="0 0 300 300" style="enable-background:new 0 0 300 300;" xml:space="preserve">
<style type="text/css">
	.st0{fill:#FFFFFF;}
	.st1{fill:#404F73;}
</style>
<g>
	<path class="st0" d="M49.5,75.4l8,4.9c6.4,4,9.7,8.2,9.7,12.7c0,2.8-1.1,5.1-3.3,6.9c-2.2,1.8-4.9,2.7-8.2,2.7
		c-7.5,0-14-3.6-19.7-10.8v13.3c6,4.5,12.6,6.7,19.8,6.7c6.3,0,11.4-1.8,15.4-5.5C75,102.6,77,97.9,77,92c0-8.3-4.5-15.1-13.4-20.4
		l-8-4.7c-3.6-2.1-6.2-4.1-7.8-6c-1.6-1.9-2.4-4-2.4-6.2c0-2.5,1.1-4.5,3.3-6.1c2.2-1.6,5-2.4,8.5-2.4c6.1,0,11.8,2.5,17.1,7.6V41.8
		c-5.1-3.4-10.7-5.2-16.9-5.2c-6.4,0-11.6,1.8-15.6,5.4c-4,3.6-6,8.3-6,14.1c0,3.9,1.1,7.3,3.2,10.2C40.9,69.3,44.4,72.3,49.5,75.4z
		"/>
	<path class="st0" d="M100.4,89.2h31.3l9.8,21.7h10.8l-32.9-73.8H112L80.4,111h10.8L100.4,89.2z M115.6,53.3l11.8,26.6h-22.8
		L115.6,53.3z"/>
	<polygon class="st0" points="203.8,101.4 170.8,101.4 170.8,37.6 160.3,37.6 160.3,111 203.8,111 	"/>
	<polygon class="st0" points="231.9,111 242.5,111 242.5,46.8 268.1,46.8 268.1,37.5 206.8,37.5 206.8,46.8 231.9,46.8 	"/>
	<path class="st0" d="M77.3,137.3c8.4,0,17.1,2.5,25.9,7.6v-11.6c-9.7-4.1-18.5-6.2-26.5-6.2c-11.5,0-21.2,3.8-29,11.3
		c-7.8,7.5-11.8,16.8-11.8,27.8c0,6.9,1.7,13.4,5.1,19.3c3.4,6,8.1,10.6,14,14c5.9,3.4,13,5.1,21.5,5.1c10.4,0,19.6-2.2,27.5-6.5
		V186c-8.7,5.6-17.7,8.4-26.8,8.4c-8.8,0-16-2.7-21.6-8c-5.6-5.3-8.4-12.2-8.4-20.5c0-8.2,2.9-15.1,8.6-20.5
		C61.4,140,68.6,137.3,77.3,137.3z"/>
	<rect x="117.4" y="128" class="st0" width="10.8" height="75.6"/>
	<polygon class="st0" points="175.4,203.6 175.4,137.5 201.7,137.5 201.7,127.9 138.6,127.9 138.6,137.5 164.5,137.5 164.5,203.6 	
		"/>
	<polygon class="st0" points="236.9,154 216.7,128 203.6,128 231.5,163.6 231.5,203.6 242.6,203.6 242.6,163.6 270.6,128 257.4,128 
			"/>
	<path class="st0" d="M78.9,224.7c-5-4.8-11.3-7.2-18.8-7.2c-7.5,0-13.8,2.4-18.7,7.2c-4.9,4.8-7.4,10.8-7.4,18.1
		c0,7.1,2.4,13,7.3,17.7c4.9,4.7,11,7.1,18.4,7.1c7.7,0,14.1-2.4,19.1-7.1c5.1-4.7,7.6-10.7,7.6-17.8
		C86.4,235.5,83.9,229.5,78.9,224.7z M73.8,255.8c-3.6,3.6-8.2,5.3-13.6,5.3c-5.4,0-9.9-1.7-13.5-5.2c-3.6-3.5-5.4-7.9-5.4-13.1
		c0-5.4,1.8-9.9,5.4-13.4c3.6-3.5,8.2-5.2,13.7-5.2c5.3,0,9.8,1.8,13.4,5.3c3.6,3.5,5.5,7.9,5.5,13
		C79.2,247.8,77.4,252.3,73.8,255.8z"/>
	<path class="st0" d="M110,218.2H94.6V267h7v-21.1h5.2c4.6,0,8.1-0.5,10.6-1.5c2.5-1,4.4-2.6,5.8-4.8c1.4-2.2,2.1-4.7,2.1-7.5
		c0-4.2-1.4-7.6-4.2-10.1C118.4,219.5,114.7,218.2,110,218.2z M115.8,237.7c-1.5,1.3-3.7,2-6.6,2h-7.6v-15.2h7.2
		c6.2,0,9.3,2.5,9.3,7.5C118.1,234.4,117.3,236.3,115.8,237.7z"/>
	<polygon class="st0" points="127.2,224.4 143.9,224.4 143.9,267 150.9,267 150.9,224.4 167.9,224.4 167.9,218.2 127.2,218.2 	"/>
	<rect x="174.6" y="218.3" class="st0" width="7" height="48.7"/>
	<path class="st0" d="M203.2,256c-3.6-3.4-5.4-7.8-5.4-13.2c0-5.3,1.8-9.7,5.5-13.2c3.7-3.5,8.3-5.3,13.9-5.3c5.4,0,11,1.6,16.7,4.9
		v-7.5c-6.3-2.7-11.9-4-17.1-4c-7.4,0-13.7,2.4-18.7,7.3c-5.1,4.8-7.6,10.8-7.6,17.9c0,4.5,1.1,8.6,3.3,12.5c2.2,3.8,5.2,6.8,9,9
		c3.8,2.2,8.4,3.3,13.8,3.3c6.7,0,12.6-1.4,17.7-4.2v-7.7c-5.6,3.6-11.4,5.4-17.3,5.4C211.4,261.1,206.8,259.4,203.2,256z"/>
	<path class="st0" d="M259.1,240.8l-5.3-3.2c-2.4-1.4-4.1-2.7-5.2-4c-1.1-1.3-1.6-2.6-1.6-4.1c0-1.6,0.7-3,2.2-4
		c1.5-1.1,3.3-1.6,5.6-1.6c4,0,7.8,1.7,11.3,5.1v-7.9c-3.4-2.3-7.1-3.4-11.2-3.4c-4.3,0-7.7,1.2-10.4,3.6c-2.7,2.4-4,5.5-4,9.3
		c0,2.6,0.7,4.8,2.1,6.8c1.4,2,3.8,4,7.1,6l5.3,3.2c4.3,2.7,6.4,5.5,6.4,8.4c0,1.8-0.7,3.4-2.2,4.6c-1.5,1.2-3.3,1.8-5.5,1.8
		c-5,0-9.3-2.4-13.1-7.2v8.9c4,3,8.3,4.4,13.1,4.4c4.2,0,7.6-1.2,10.2-3.7c2.6-2.4,3.9-5.6,3.9-9.5C268,248.9,265,244.4,259.1,240.8
		z"/>
	<path class="st0" d="M14.5,287.9h272v-272h-272V287.9z M19.5,20.9h262v262h-262V20.9z"/>
</g>
<g>
	<polygon class="st1" points="117.2,58.6 107,83.3 128.2,83.3 	"/>
	<path class="st1" d="M271,28.6H28.3v242.7H271V28.6z M201.7,44h56.8v8.7h-23.7v59.4H225V52.6h-23.3V44z M158.6,44.1h9.7v59.1H199
		v8.9h-40.3V44.1z M138.5,136.6v-8.9H197v8.9h-24.4v61.2h-10.1v-61.2H138.5z M113.9,43.7h6.8l30.5,68.4h-10l-9.1-20.1h-29l-8.5,20.1
		h-10L113.9,43.7z M129,127.8v70h-10v-70H129z M61.6,182c5.2,4.9,11.9,7.4,20,7.4c8.5,0,16.8-2.6,24.9-7.8v11c-7.4,4-15.8,6-25.5,6
		c-7.8,0-14.5-1.6-19.9-4.7c-5.4-3.1-9.8-7.5-12.9-13c-3.2-5.5-4.8-11.5-4.8-17.9c0-10.2,3.6-18.8,10.9-25.7
		c7.3-6.9,16.2-10.4,26.9-10.4c7.4,0,15.5,1.9,24.5,5.8v10.8c-8.2-4.7-16.2-7-24-7c-8,0-14.7,2.5-20,7.6c-5.3,5.1-7.9,11.4-7.9,19
		C53.8,170.7,56.4,177,61.6,182z M48.7,48.2c3.7-3.3,8.5-5,14.5-5c5.7,0,10.9,1.6,15.6,4.8v11C73.9,54.3,68.6,52,63,52
		c-3.2,0-5.8,0.7-7.8,2.2c-2,1.5-3.1,3.4-3.1,5.6c0,2,0.8,3.9,2.3,5.7c1.5,1.8,3.9,3.6,7.3,5.6l7.4,4.4c8.3,5,12.4,11.3,12.4,18.9
		c0,5.4-1.8,9.9-5.5,13.3c-3.6,3.4-8.4,5.1-14.2,5.1c-6.7,0-12.8-2.1-18.3-6.2V94.3c5.3,6.7,11.3,10,18.2,10c3,0,5.6-0.8,7.6-2.5
		c2-1.7,3-3.8,3-6.4c0-4.1-3-8.1-9-11.8L56,79.1c-4.6-2.8-7.9-5.6-9.9-8.4c-2-2.7-2.9-5.9-2.9-9.5C43.1,55.9,45,51.6,48.7,48.2z
		 M83.2,250.6c-4.7,4.4-10.6,6.5-17.7,6.5c-6.8,0-12.5-2.2-17-6.5c-4.5-4.4-6.8-9.8-6.8-16.4c0-6.7,2.3-12.3,6.8-16.7
		c4.6-4.4,10.3-6.6,17.3-6.6c7,0,12.8,2.2,17.4,6.6c4.6,4.4,7,10,7,16.6C90.2,240.7,87.8,246.2,83.2,250.6z M124.3,231.2
		c-1.3,2-3.1,3.5-5.4,4.4c-2.3,0.9-5.6,1.4-9.8,1.4h-4.8v19.6h-6.5v-45.2h14.3c4.3,0,7.7,1.2,10.3,3.5c2.6,2.3,3.8,5.4,3.8,9.4
		C126.2,226.9,125.6,229.2,124.3,231.2z M165.7,217.1H150v39.4h-6.5v-39.4H128v-5.7h37.7V217.1z M178.3,256.6h-6.5v-45.1h6.5V256.6z
		 M227.3,253.2c-4.7,2.6-10.2,3.9-16.4,3.9c-5,0-9.3-1-12.8-3c-3.5-2-6.3-4.8-8.3-8.4c-2-3.6-3.1-7.4-3.1-11.5
		c0-6.6,2.3-12.1,7-16.6c4.7-4.5,10.5-6.7,17.3-6.7c4.7,0,10,1.2,15.8,3.7v6.9c-5.3-3-10.4-4.5-15.5-4.5c-5.2,0-9.5,1.6-12.9,4.9
		c-3.4,3.3-5.1,7.4-5.1,12.3c0,5,1.7,9,5,12.2c3.4,3.2,7.7,4.8,12.9,4.8c5.5,0,10.8-1.7,16-5V253.2z M254.8,253.7
		c-2.4,2.3-5.6,3.4-9.4,3.4c-4.5,0-8.5-1.4-12.2-4.1v-8.2c3.5,4.4,7.5,6.6,12.1,6.6c2,0,3.7-0.6,5.1-1.7c1.3-1.1,2-2.5,2-4.2
		c0-2.7-2-5.4-5.9-7.8l-4.9-3c-3.1-1.9-5.3-3.7-6.6-5.6c-1.3-1.8-2-3.9-2-6.3c0-3.6,1.2-6.4,3.7-8.7c2.5-2.2,5.7-3.3,9.6-3.3
		c3.8,0,7.2,1.1,10.4,3.2v7.3c-3.3-3.1-6.8-4.7-10.5-4.7c-2.1,0-3.8,0.5-5.2,1.5c-1.4,1-2,2.2-2,3.7c0,1.4,0.5,2.6,1.5,3.8
		c1,1.2,2.6,2.4,4.8,3.7l4.9,2.9c5.5,3.3,8.3,7.5,8.3,12.6C258.4,248.5,257.2,251.5,254.8,253.7z M234.9,160.8v37h-10.3v-37
		l-25.9-33h12.1l18.7,24.1l19-24.1h12.2L234.9,160.8z"/>
	<path class="st1" d="M111,217.1h-6.7v14.1h7.1c2.6,0,4.7-0.6,6.1-1.9c1.4-1.2,2.1-3,2.1-5.3C119.5,219.5,116.7,217.1,111,217.1z"/>
	<path class="st1" d="M299.7-0.1H-0.5V300h300.1V-0.1z M275.6,275.9h-252V24h252V275.9z"/>
	<path class="st1" d="M66.1,216.9c-5.2,0-9.4,1.6-12.7,4.8c-3.3,3.2-5,7.4-5,12.4c0,4.9,1.7,8.9,5,12.1c3.3,3.2,7.5,4.8,12.5,4.8
		c5,0,9.2-1.6,12.6-4.9c3.4-3.3,5.1-7.4,5.1-12.3c0-4.8-1.7-8.8-5.1-12.1C75.1,218.6,71,216.9,66.1,216.9z"/>
	<path class="st0" d="M56,79.1l7.4,4.5c6,3.7,9,7.6,9,11.8c0,2.6-1,4.7-3,6.4c-2,1.7-4.6,2.5-7.6,2.5c-6.9,0-13-3.3-18.2-10v12.4
		c5.5,4.1,11.6,6.2,18.3,6.2c5.8,0,10.6-1.7,14.2-5.1c3.6-3.4,5.5-7.8,5.5-13.3c0-7.7-4.1-14-12.4-18.9l-7.4-4.4
		c-3.3-2-5.8-3.8-7.3-5.6c-1.5-1.8-2.3-3.7-2.3-5.7c0-2.3,1-4.2,3.1-5.6c2-1.5,4.7-2.2,7.8-2.2c5.6,0,10.9,2.4,15.8,7.1V48
		c-4.7-3.2-9.9-4.8-15.6-4.8c-5.9,0-10.8,1.7-14.5,5c-3.7,3.3-5.6,7.7-5.6,13c0,3.6,1,6.7,2.9,9.5C48,73.5,51.3,76.3,56,79.1z"/>
	<path class="st0" d="M103.2,91.9h29l9.1,20.1h10l-30.5-68.4h-6.8l-29.2,68.4h10L103.2,91.9z M117.2,58.6l11,24.6H107L117.2,58.6z"
		/>
	<polygon class="st0" points="199,103.2 168.4,103.2 168.4,44.1 158.6,44.1 158.6,112.1 199,112.1 	"/>
	<polygon class="st0" points="225,112.1 234.8,112.1 234.8,52.6 258.5,52.6 258.5,44 201.7,44 201.7,52.6 225,52.6 	"/>
	<path class="st0" d="M81.7,136.4c7.8,0,15.8,2.3,24,7v-10.8c-9-3.8-17.2-5.8-24.5-5.8c-10.7,0-19.6,3.5-26.9,10.4
		c-7.3,7-10.9,15.5-10.9,25.7c0,6.4,1.6,12.4,4.8,17.9c3.2,5.5,7.5,9.8,12.9,13c5.4,3.1,12.1,4.7,19.9,4.7c9.6,0,18.1-2,25.5-6v-11
		c-8.1,5.2-16.4,7.8-24.9,7.8c-8.1,0-14.8-2.5-20-7.4c-5.2-4.9-7.8-11.3-7.8-18.9c0-7.6,2.6-14,7.9-19
		C67.1,139,73.7,136.4,81.7,136.4z"/>
	<rect x="118.9" y="127.8" class="st0" width="10" height="70"/>
	<polygon class="st0" points="172.6,197.8 172.6,136.6 197,136.6 197,127.7 138.5,127.7 138.5,136.6 162.5,136.6 162.5,197.8 	"/>
	<polygon class="st0" points="229.6,152 210.9,127.8 198.8,127.8 224.6,160.8 224.6,197.8 234.9,197.8 234.9,160.8 260.8,127.8 
		248.6,127.8 	"/>
	<path class="st0" d="M83.2,217.4c-4.6-4.4-10.4-6.6-17.4-6.6c-7,0-12.7,2.2-17.3,6.6c-4.6,4.4-6.8,10-6.8,16.7
		c0,6.6,2.3,12,6.8,16.4c4.5,4.4,10.2,6.5,17,6.5c7.1,0,13-2.2,17.7-6.5c4.7-4.4,7-9.9,7-16.5C90.2,227.4,87.9,221.8,83.2,217.4z
		 M78.5,246.2c-3.4,3.3-7.6,4.9-12.6,4.9c-5,0-9.2-1.6-12.5-4.8c-3.3-3.2-5-7.3-5-12.1c0-5,1.7-9.1,5-12.4c3.3-3.2,7.6-4.8,12.7-4.8
		c4.9,0,9,1.6,12.4,4.9c3.4,3.3,5.1,7.3,5.1,12.1C83.5,238.8,81.8,242.9,78.5,246.2z"/>
	<path class="st0" d="M112.1,211.4H97.8v45.2h6.5V237h4.8c4.3,0,7.5-0.5,9.8-1.4c2.3-0.9,4.1-2.4,5.4-4.4c1.3-2,2-4.4,2-7
		c0-3.9-1.3-7-3.8-9.4C119.8,212.6,116.4,211.4,112.1,211.4z M117.4,229.4c-1.4,1.2-3.4,1.9-6.1,1.9h-7.1v-14.1h6.7
		c5.7,0,8.6,2.3,8.6,6.9C119.5,226.4,118.8,228.2,117.4,229.4z"/>
	<polygon class="st0" points="128,217.1 143.5,217.1 143.5,256.6 150,256.6 150,217.1 165.7,217.1 165.7,211.4 128,211.4 	"/>
	<rect x="171.9" y="211.5" class="st0" width="6.5" height="45.1"/>
	<path class="st0" d="M198.3,246.4c-3.4-3.2-5-7.3-5-12.2c0-4.9,1.7-9,5.1-12.3c3.4-3.3,7.7-4.9,12.9-4.9c5,0,10.2,1.5,15.5,4.5
		v-6.9c-5.8-2.5-11.1-3.7-15.8-3.7c-6.9,0-12.6,2.2-17.3,6.7c-4.7,4.5-7,10-7,16.6c0,4.1,1,8,3.1,11.5c2,3.6,4.8,6.3,8.3,8.4
		c3.5,2,7.8,3,12.8,3c6.2,0,11.7-1.3,16.4-3.9v-7.1c-5.2,3.4-10.6,5-16,5C206,251.2,201.7,249.6,198.3,246.4z"/>
	<path class="st0" d="M250.1,232.3l-4.9-2.9c-2.2-1.3-3.8-2.5-4.8-3.7c-1-1.2-1.5-2.4-1.5-3.8c0-1.5,0.7-2.8,2-3.7
		c1.4-1,3.1-1.5,5.2-1.5c3.7,0,7.2,1.6,10.5,4.7V214c-3.1-2.1-6.6-3.2-10.4-3.2c-3.9,0-7.1,1.1-9.6,3.3c-2.5,2.2-3.7,5.1-3.7,8.7
		c0,2.4,0.7,4.5,2,6.3c1.3,1.8,3.5,3.7,6.6,5.6l4.9,3c4,2.5,5.9,5.1,5.9,7.8c0,1.7-0.7,3.1-2,4.2c-1.3,1.1-3,1.7-5.1,1.7
		c-4.6,0-8.6-2.2-12.1-6.6v8.2c3.7,2.7,7.7,4.1,12.2,4.1c3.9,0,7-1.1,9.4-3.4c2.4-2.3,3.6-5.2,3.6-8.8
		C258.4,239.8,255.7,235.6,250.1,232.3z"/>
	<path class="st0" d="M23.6,275.9h252V24h-252V275.9z M28.3,28.6H271v242.7H28.3V28.6z"/>
</g>
</svg>
